<svg width="496" height="100" viewBox="0 0 496 100" fill="none" xmlns="http://www.w3.org/2000/svg">
<path d="M34.2078 20.6466L32 23.7067C33.3667 24.7608 35.7848 25.7064 38.2028 25.074C39.6747 26.2335 41.9175 26.0578 43.0389 26.0227C42.8637 27.8498 42.6184 33.7389 43.0389 42.6779C43.4595 51.617 49.9427 57.7169 53.1317 59.6494L51 71L53.1317 83.9999H59.2294L56.5 71L59.2294 59.6494L64.486 83.9999H70.6889L65.5373 59.6494H78.7841L73.6326 83.9999H79.9405L85.092 59.6494L88.5 71L85.092 83.9999H91.4L94 71L91.2949 59.6494C91.8205 58.2791 92.1 57.7438 92.4513 56.2762C94.3437 48.3702 90.7692 41.9752 88.6666 39.621L83.6202 34.4557C81.4124 32.242 77.6276 32.1366 75.2096 34.1395C73.4319 35.6119 72.4252 35.6931 70.6889 34.1395C69.9529 33.507 68.1336 31.3722 65.7476 29.3959C63.3296 27.393 59.1243 28.2363 57.5473 29.923L50.3982 37.091V17.9059L51.7818 16C47.226 16.9136 37.9505 18.3908 36.9412 18.6438C35.932 18.8968 34.6984 20.0844 34.2078 20.6466Z" fill="#4C19E8"/>
<path d="M42.8009 20.68L44.2728 19.2627L45.7446 20.68L44.2728 22.2064L42.8009 20.68Z" fill="white"/>
<path d="M110 58.4046C110 51.7053 112.119 46.2023 116.357 41.8956C118.34 39.8676 120.641 38.2497 123.262 37.042C127.705 35.014 132.866 34 138.745 34C141.799 34 144.499 34.2393 146.846 34.7178C149.193 35.1735 151.962 36.0394 155.152 37.3155L155.562 38.0674C155.084 40.0954 154.548 43.673 153.956 48.8H151.221L150.879 42.7843C149.216 41.212 147.701 40.1182 146.333 39.503C144.009 38.4548 141.377 37.9307 138.438 37.9307C132.126 37.9307 127.352 40.1524 124.116 44.5958C121.701 47.8999 120.493 52.1724 120.493 57.4134C120.493 63.5202 122.066 68.4991 125.21 72.35C128.993 76.9985 134.222 79.3228 140.899 79.3228C145.456 79.3228 150.002 78.1265 154.537 75.7339L155.357 76.5884L153.819 80.0064C151.859 81.0774 150.219 81.8293 148.897 82.2623C145.661 83.3332 142.05 83.8687 138.062 83.8687C132.183 83.8687 127.101 82.7978 122.818 80.6558C119.878 79.1975 117.349 77.1694 115.23 74.5718C111.743 70.2878 110 64.8988 110 58.4046Z" fill="#4C19E8"/>
<path d="M159.735 83.8687V80.2798L161.82 80.0747C163.347 79.938 164.657 78.5366 165.751 75.8706L178.432 45.2111L182.431 34.6494H187.387L205.502 76.9985C206.3 78.8215 207.587 79.8469 209.365 80.0747L211.04 80.2798V83.8687C204.933 83.732 201.296 83.8687 200.043 83.8687C198.653 83.8687 195.055 83.732 189.335 83.8687V80.2798L193.061 80.0747C193.448 80.052 193.767 79.8583 194.018 79.4937C194.291 79.1291 194.428 78.6961 194.428 78.1948C194.428 77.5568 194.291 76.9074 194.018 76.2466L190.873 68.2484H173.305L170.365 76.0757C170.16 76.6681 170.058 77.2492 170.058 77.8189C170.058 78.4341 170.24 78.9582 170.605 79.3911C170.992 79.8241 171.482 80.052 172.074 80.0747L175.561 80.2798V83.8733C173.783 83.8278 172.348 83.8933 171.459 83.8705C169.568 83.8021 168.276 83.8687 167.57 83.8687H159.735ZM175.014 64.3177H189.267L181.987 46.5441L175.014 64.3177Z" fill="#4C19E8"/>
<path d="M215.008 83.8687V80.2798L217.605 80.0747C218.973 79.9608 219.85 79.676 220.237 79.2202C220.716 78.6734 220.955 76.6681 220.955 73.2045V44.6642C220.955 41.5424 220.784 39.6511 220.442 38.9903C220.123 38.3067 219.178 37.9079 217.605 37.794L215.008 37.5889V34.9912L218.562 35.0938C220.887 35.1621 222.22 35.1963 222.562 35.1963H223.416L231.824 34.9912C234.468 40.7335 236.211 44.4933 237.054 46.2706L248.128 69.3764L260.912 42.8868C261.55 41.6336 262.7 39.0017 264.364 34.9912C269.217 35.1279 271.895 35.1963 272.396 35.1963C272.92 35.1963 275.632 35.1279 280.531 34.9912V37.5889L277.933 37.794C276.566 37.9079 275.677 38.1928 275.267 38.6485C274.811 39.1954 274.584 41.2006 274.584 44.6642V73.2045C274.584 76.3491 274.732 78.2176 275.028 78.8101C275.324 79.3797 276.293 79.7329 277.933 79.8697L280.531 80.0747V83.8687C275.313 83.732 271.719 83.8687 269.669 83.8687C267.595 83.8687 263.931 83.732 258.758 83.8687V80.0747L261.356 79.8697C262.814 79.7557 263.714 79.5051 264.056 79.1177C264.489 78.6392 264.706 76.6681 264.706 73.2045V44.0831L250.282 74.1274C248.459 77.91 247.057 80.9862 246.077 83.356H243.719C242.489 80.4393 241.645 78.5025 241.19 77.5454L225.091 44.0148V73.2045C225.091 76.3263 225.25 78.229 225.569 78.9126C225.888 79.5734 226.845 79.9608 228.44 80.0747L231.038 80.2798V83.8687C226.89 83.8687 224.323 83.8687 223.001 83.8687C221.657 83.8687 219.087 83.732 215.008 83.8687Z" fill="#4C19E8"/>
<path d="M285.904 37.5889V34.9912C292.147 35.1279 296.545 35.1963 299.097 35.1963C301.239 35.1963 304.27 35.1507 308.189 35.0596C311.539 34.9912 314.057 34.957 315.743 34.957C318.067 34.957 320.277 35.0368 322.374 35.1963L322.784 35.6748L321.827 45.6554H319.298L318.751 40.3917C318.705 40.0271 318.022 39.7195 316.7 39.4688C315.401 39.1954 313.817 39.0587 311.949 39.0587C308.326 39.0587 304.919 39.127 301.729 39.2637V56.0803C302.914 56.1715 304.475 56.217 306.412 56.217H311.026C312.53 56.217 313.555 56.1145 314.102 55.9094C314.649 55.7043 314.957 55.317 315.025 54.7473L315.435 50.7482H318.238C318.215 51.8648 318.193 52.7079 318.17 53.2776C318.079 55.579 318.033 56.9804 318.033 57.4817C318.033 57.8691 318.033 58.1197 318.033 58.2337L318.238 65.7875H315.435L315.025 62.3011C314.911 61.3668 314.547 60.706 313.931 60.3187C313.316 59.9085 312.348 59.7034 311.026 59.7034H306.412C305.022 59.7034 303.461 59.7718 301.729 59.9085V78.605C305.147 78.7873 308.212 78.8784 310.924 78.8784C314.433 78.8784 317.133 78.5252 319.024 77.8189C319.138 77.7733 319.207 77.7163 319.229 77.648L320.836 71.0512H323.57L322.784 82.1255L322.586 83.9025C319.327 84.1076 315.779 83.9255 312.475 83.9255C309.011 83.9255 305.253 84.0339 301.197 83.8971C299.305 83.8288 297.818 83.8687 296.724 83.8687C295.152 83.8687 292.398 83.732 288.228 83.8687V81.271L290.45 80.0064C291.384 79.4823 291.851 78.1493 291.851 76.0073V44.6642C291.851 41.5424 291.68 39.6511 291.338 38.9903C291.019 38.3295 290.074 37.9307 288.501 37.794L285.904 37.5889Z" fill="#4C19E8"/>
<path d="M328.697 37.794V34.9912C334.325 35.1279 337.949 35.1963 339.566 35.1963C341.162 35.1963 344.796 35.1279 350.47 34.9912V37.794L347.872 37.9991C346.391 38.113 345.48 38.3637 345.138 38.751C344.728 39.2523 344.523 41.2234 344.523 44.6642V78.605C347.827 78.7873 350.891 78.8784 353.717 78.8784C357.295 78.8784 359.995 78.5252 361.818 77.8189C361.932 77.7733 362 77.7163 362.023 77.648L363.629 70.5043H366.25L365.577 82.1255L365.17 83.8971C361.911 84.1022 358.557 83.8971 355.253 83.8971C351.789 83.8971 348.225 84.0339 344.169 83.8971C342.278 83.8288 340.596 83.8971 339.503 83.8971C337.93 83.8971 335.191 83.7604 331.021 83.8971V81.271L333.243 80.0064C334.177 79.4823 334.645 78.1607 334.645 76.0415V44.6642C334.645 41.5424 334.496 39.6853 334.2 39.0928C333.904 38.5004 332.936 38.1358 331.295 37.9991L328.697 37.794Z" fill="#4C19E8"/>
<path d="M368.25 60.9654C368.441 60.395 368.646 59.7975 368.865 59.1728C369.235 58.1543 369.509 57.3327 369.687 56.708H384.13L384.5 57.1358C383.843 58.6568 383.398 60.042 383.165 61.2913H368.578L368.25 60.9654Z" fill="#4C19E8"/>
<path d="M386.5 83.995V80.3777L388.585 80.1726C390.111 80.0359 391.421 78.6345 392.515 75.9684L405.196 45.3089L409.208 34.0001H414.208L432.267 77.0964C433.064 78.9193 434.352 79.9447 436.129 80.1726L437.804 80.3777V83.995C431.708 83.995 427.992 83.995 426.739 83.995C425.349 83.995 421.708 83.995 416.099 83.995V80.3777L419.825 80.1726C420.212 80.1498 420.532 79.9561 420.782 79.5915C421.056 79.2269 421.192 78.794 421.192 78.2927C421.192 77.6547 421.056 77.0052 420.782 76.3444L417.638 68.3463H400.069L397.13 76.1735C396.924 76.766 396.822 77.347 396.822 77.9167C396.822 78.5319 397.004 79.056 397.369 79.489C397.756 79.9219 398.246 80.1498 398.839 80.1726L402.325 80.3777V83.995C400.548 83.9494 399.238 84.0178 398.349 83.995C396.395 83.995 394.972 83.995 394.266 83.995H386.5ZM401.778 64.4156H416.031L408.751 46.6419L401.778 64.4156Z" fill="#4C19E8"/>
<path d="M442.251 83.995V80.1726L444.848 79.9675C446.307 79.8536 447.207 79.6029 447.548 79.2155C447.981 78.737 448.198 76.766 448.198 73.3024V44.762C448.198 41.6402 448.05 38.7414 447.754 38.149C447.457 37.5565 446.489 37.192 444.848 37.0552L442.333 36.8125V34C447.958 34 451.548 34 453.166 34C454.761 34 458.351 34 463.999 34V36.8125L461.426 37.0552C459.944 37.1692 459.033 37.4198 458.691 37.8072C458.281 38.3085 458.076 41.3212 458.076 44.762V73.3024C458.076 76.4469 458.224 78.3155 458.52 78.9079C458.816 79.4776 459.785 79.8308 461.426 79.9675L463.999 80.1458V83.9999C458.871 83.9999 455.145 83.995 453.003 83.995C450.838 83.995 447.333 83.995 442.251 83.995Z" fill="#4C19E8"/>
</svg>
