<svg width="400" height="200" viewBox="0 0 400 200" fill="none" xmlns="http://www.w3.org/2000/svg">
<mask id="path-1-inside-1_8_4660" fill="white">
<path d="M10 36C10 33.7909 11.7909 32 14 32H386C388.209 32 390 33.7909 390 36V200H10V36Z"/>
</mask>
<path d="M10 36C10 33.7909 11.7909 32 14 32H386C388.209 32 390 33.7909 390 36V200H10V36Z" fill="url(#paint0_linear_8_4660)"/>
<path d="M10 36C10 33.2386 12.2386 31 15 31H385C387.761 31 390 33.2386 390 36C390 34.3431 388.209 33 386 33H14C11.7909 33 10 34.3431 10 36ZM390 200H10H390ZM10 200V32V200ZM390 32V200V32Z" fill="#303547" mask="url(#path-1-inside-1_8_4660)"/>
<mask id="path-3-inside-2_8_4660" fill="white">
<path d="M10 32H390V56H10V32Z"/>
</mask>
<path d="M390 56V55H10V56V57H390V56Z" fill="#4E5366" mask="url(#path-3-inside-2_8_4660)"/>
<circle cx="21" cy="44" r="3" fill="#DC244C"/>
<circle cx="31" cy="44" r="3" fill="#303547"/>
<circle cx="41" cy="44" r="3" fill="#009688"/>
<path d="M342 44C342 42.3431 343.343 41 345 41H379C380.657 41 382 42.3431 382 44C382 45.6569 380.657 47 379 47H345C343.343 47 342 45.6569 342 44Z" fill="#303547"/>
<path d="M26.88 75V68.02H29.53C30.98 68.02 31.94 68.86 31.94 70.16C31.94 71.46 30.93 72.33 29.4 72.33H27.74V75H26.88ZM29.52 68.77H27.74V71.58H29.4C30.38 71.58 31.03 71.01 31.03 70.16C31.03 69.32 30.43 68.77 29.52 68.77ZM35.7639 75.12C34.1739 75.12 33.0939 74.08 33.0939 72.53V68.02H33.9739V72.53C33.9739 73.63 34.6839 74.37 35.7639 74.37C36.8339 74.37 37.5439 73.63 37.5439 72.53V68.02H38.4139V72.53C38.4139 74.08 37.3339 75.12 35.7639 75.12ZM41.8178 75V68.77H39.4978V68.02H45.0078V68.77H42.6878V75H41.8178ZM55.4456 75.12C53.7556 75.12 52.6856 74 52.6856 72.26C52.6856 70.51 53.8056 69.4 55.4556 69.4C56.7256 69.4 57.7356 70.16 57.8656 71.35H57.0356C56.9156 70.56 56.2956 70.1 55.4556 70.1C54.2856 70.1 53.5156 70.93 53.5156 72.26C53.5156 73.6 54.2756 74.42 55.4456 74.42C56.1956 74.42 56.8856 73.94 57.0656 73.17H57.8956C57.6756 74.37 56.6456 75.12 55.4456 75.12ZM61.7595 75.12C60.0795 75.12 59.0595 74.03 59.0595 72.26C59.0595 70.48 60.0795 69.4 61.7595 69.4C63.4495 69.4 64.4695 70.48 64.4695 72.26C64.4695 74.03 63.4495 75.12 61.7595 75.12ZM61.7595 74.42C62.9295 74.42 63.6395 73.59 63.6395 72.26C63.6395 70.92 62.9295 70.1 61.7595 70.1C60.5895 70.1 59.8895 70.92 59.8895 72.26C59.8895 73.59 60.5895 74.42 61.7595 74.42ZM65.7634 75V74.33H67.8634V68.34H66.4934V67.67H68.6834V74.33H70.8034V75H65.7634ZM72.2673 75V74.33H74.3673V68.34H72.9973V67.67H75.1873V74.33H77.3073V75H72.2673ZM81.3413 75.12C79.6513 75.12 78.6313 74.04 78.6313 72.25C78.6313 70.48 79.6513 69.4 81.3613 69.4C83.0613 69.4 83.9613 70.4 83.8713 72.03H79.4713C79.4613 72.11 79.4613 72.19 79.4613 72.27C79.4613 73.57 80.1513 74.42 81.3413 74.42C82.2813 74.42 82.9613 73.94 83.1013 73.17H83.9313C83.7313 74.38 82.7513 75.12 81.3413 75.12ZM81.3613 70.09C80.4413 70.09 79.8213 70.56 79.5813 71.38L83.0213 71.4C82.9713 70.59 82.3113 70.09 81.3613 70.09ZM87.9652 75.12C86.2752 75.12 85.2052 74 85.2052 72.26C85.2052 70.51 86.3252 69.4 87.9752 69.4C89.2452 69.4 90.2552 70.16 90.3852 71.35H89.5552C89.4352 70.56 88.8152 70.1 87.9752 70.1C86.8052 70.1 86.0352 70.93 86.0352 72.26C86.0352 73.6 86.7952 74.42 87.9652 74.42C88.7152 74.42 89.4052 73.94 89.5852 73.17H90.4152C90.1952 74.37 89.1652 75.12 87.9652 75.12ZM94.7391 75C93.7391 75 93.2391 74.41 93.2391 73.43V70.19H91.8691V69.52H93.2391V68.44L94.0591 67.94V69.52H95.9091V70.19H94.0591V73.43C94.0591 73.91 94.1991 74.33 95.0191 74.33H96.7491V75H94.7391ZM100.373 68.51V67.55H101.323V68.51H100.373ZM98.343 75V74.33H100.443V70.19H99.083V69.52H101.273V74.33H103.193V75H98.343ZM107.287 75.12C105.607 75.12 104.587 74.03 104.587 72.26C104.587 70.48 105.607 69.4 107.287 69.4C108.977 69.4 109.997 70.48 109.997 72.26C109.997 74.03 108.977 75.12 107.287 75.12ZM107.287 74.42C108.457 74.42 109.167 73.59 109.167 72.26C109.167 70.92 108.457 70.1 107.287 70.1C106.117 70.1 105.417 70.92 105.417 72.26C105.417 73.59 106.117 74.42 107.287 74.42ZM111.411 75V69.52H112.191L112.231 70.55C112.681 69.8 113.401 69.4 114.201 69.4C115.441 69.4 116.241 70.24 116.241 71.5V75H115.411V71.52C115.411 70.68 114.881 70.11 114.081 70.11C113.281 70.11 112.601 70.65 112.241 71.75V75H111.411ZM120.455 75.12C119.015 75.12 118.075 74.33 118.055 73.04H118.845C118.855 73.93 119.485 74.46 120.445 74.46C121.275 74.46 121.835 74.12 121.835 73.57C121.835 72.08 118.145 73.04 118.145 70.99C118.145 70.08 118.945 69.4 120.305 69.4C121.665 69.4 122.525 70.08 122.585 71.15H121.795C121.755 70.46 121.195 70.06 120.305 70.06C119.435 70.06 118.985 70.46 118.985 70.96C118.985 72.33 122.665 71.28 122.665 73.52C122.665 74.51 121.795 75.12 120.455 75.12ZM124.449 75.97L128.309 68.01H129.169L125.309 75.97H124.449ZM133.463 75.12C132.023 75.12 131.083 74.33 131.063 73.04H131.853C131.863 73.93 132.493 74.46 133.453 74.46C134.283 74.46 134.843 74.12 134.843 73.57C134.843 72.08 131.153 73.04 131.153 70.99C131.153 70.08 131.953 69.4 133.313 69.4C134.673 69.4 135.533 70.08 135.593 71.15H134.803C134.763 70.46 134.203 70.06 133.313 70.06C132.443 70.06 131.993 70.46 131.993 70.96C131.993 72.33 135.673 71.28 135.673 73.52C135.673 74.51 134.803 75.12 133.463 75.12ZM140.266 75C139.266 75 138.766 74.41 138.766 73.43V70.19H137.396V69.52H138.766V68.44L139.586 67.94V69.52H141.436V70.19H139.586V73.43C139.586 73.91 139.726 74.33 140.546 74.33H142.276V75H140.266ZM145.82 75.12C144.74 75.12 144.01 74.53 144.01 73.54C144.01 72.41 144.92 71.75 146.49 71.75H147.84V71.45C147.84 70.58 147.25 70.05 146.28 70.05C145.35 70.05 144.7 70.52 144.65 71.27H143.84C143.93 70.1 144.92 69.4 146.3 69.4C147.75 69.4 148.66 70.18 148.66 71.48V75H147.88L147.85 74.03C147.45 74.73 146.77 75.12 145.82 75.12ZM144.83 73.5C144.83 74.09 145.27 74.43 145.95 74.43C146.77 74.43 147.42 73.98 147.84 73.21V72.39H146.45C145.43 72.39 144.83 72.8 144.83 73.5ZM150.704 75V69.52H151.464L151.514 70.59C151.954 69.81 152.614 69.4 153.444 69.4C154.524 69.4 155.254 70.05 155.254 71.12V71.75H154.424V71.12C154.424 70.51 154.034 70.11 153.344 70.11C152.564 70.11 151.924 70.63 151.534 71.65V75H150.704ZM156.998 75.73V75H161.668V75.73H156.998ZM166.012 75.12C164.322 75.12 163.252 74 163.252 72.26C163.252 70.51 164.372 69.4 166.022 69.4C167.292 69.4 168.302 70.16 168.432 71.35H167.602C167.482 70.56 166.862 70.1 166.022 70.1C164.852 70.1 164.082 70.93 164.082 72.26C164.082 73.6 164.842 74.42 166.012 74.42C166.762 74.42 167.452 73.94 167.632 73.17H168.462C168.242 74.37 167.212 75.12 166.012 75.12ZM169.946 75V67.66H170.776V70.54C171.226 69.79 171.936 69.4 172.736 69.4C173.976 69.4 174.776 70.24 174.776 71.51V75H173.946V71.53C173.946 70.68 173.416 70.11 172.616 70.11C171.816 70.11 171.136 70.65 170.776 71.75V75H169.946ZM178.34 75.12C177.26 75.12 176.53 74.53 176.53 73.54C176.53 72.41 177.44 71.75 179.01 71.75H180.36V71.45C180.36 70.58 179.77 70.05 178.8 70.05C177.87 70.05 177.22 70.52 177.17 71.27H176.36C176.45 70.1 177.44 69.4 178.82 69.4C180.27 69.4 181.18 70.18 181.18 71.48V75H180.4L180.37 74.03C179.97 74.73 179.29 75.12 178.34 75.12ZM177.35 73.5C177.35 74.09 177.79 74.43 178.47 74.43C179.29 74.43 179.94 73.98 180.36 73.21V72.39H178.97C177.95 72.39 177.35 72.8 177.35 73.5ZM183.224 75V69.52H183.984L184.034 70.59C184.474 69.81 185.134 69.4 185.964 69.4C187.044 69.4 187.774 70.05 187.774 71.12V71.75H186.944V71.12C186.944 70.51 186.554 70.11 185.864 70.11C185.084 70.11 184.444 70.63 184.054 71.65V75H183.224ZM192.298 75C191.298 75 190.798 74.41 190.798 73.43V70.19H189.428V69.52H190.798V68.44L191.618 67.94V69.52H193.468V70.19H191.618V73.43C191.618 73.91 191.758 74.33 192.578 74.33H194.308V75H192.298ZM198.502 75.12C197.062 75.12 196.122 74.33 196.102 73.04H196.892C196.902 73.93 197.532 74.46 198.492 74.46C199.322 74.46 199.882 74.12 199.882 73.57C199.882 72.08 196.192 73.04 196.192 70.99C196.192 70.08 196.992 69.4 198.352 69.4C199.712 69.4 200.572 70.08 200.632 71.15H199.842C199.802 70.46 199.242 70.06 198.352 70.06C197.482 70.06 197.032 70.46 197.032 70.96C197.032 72.33 200.712 71.28 200.712 73.52C200.712 74.51 199.842 75.12 198.502 75.12Z" fill="#0288D1"/>
<path d="M30.31 93.97C29.28 93.97 28.57 93.32 28.57 92.24V91.16C28.57 90.71 28.24 90.37 27.75 90.29V89.72C28.24 89.64 28.57 89.26 28.57 88.83V87.74C28.57 86.69 29.29 86.02 30.31 86.02H30.69V86.69H30.38C29.78 86.69 29.39 87.13 29.39 87.78V88.7C29.39 89.35 29.09 89.78 28.64 90C29.1 90.22 29.39 90.65 29.39 91.29V92.2C29.39 92.88 29.78 93.29 30.38 93.29H30.69V93.97H30.31Z" fill="white"/>
<path d="M42.7578 105.95L42.6478 103.55H43.5678L43.4378 105.95H42.7578ZM41.0678 105.95L40.9578 103.55H41.8778L41.7478 105.95H41.0678ZM48.2917 111L46.0917 105.52H46.9717L48.3617 109L48.7717 110.22L49.1817 109L50.5617 105.52H51.4217L49.2217 111H48.2917ZM55.3256 111.12C54.7656 111.12 54.2823 111.007 53.8756 110.78C53.469 110.547 53.1556 110.217 52.9356 109.79C52.7223 109.357 52.6156 108.843 52.6156 108.25C52.6156 107.657 52.7256 107.15 52.9456 106.73C53.1656 106.303 53.479 105.977 53.8856 105.75C54.2923 105.517 54.779 105.4 55.3456 105.4C56.199 105.4 56.8423 105.633 57.2756 106.1C57.709 106.567 57.9023 107.21 57.8556 108.03H53.2756V107.38L57.0056 107.4C56.979 107 56.8156 106.683 56.5156 106.45C56.2156 106.21 55.8256 106.09 55.3456 106.09C54.7456 106.09 54.279 106.283 53.9456 106.67C53.6123 107.05 53.4456 107.583 53.4456 108.27C53.4456 108.703 53.519 109.083 53.6656 109.41C53.819 109.73 54.0356 109.98 54.3156 110.16C54.5956 110.333 54.9323 110.42 55.3256 110.42C55.7923 110.42 56.1823 110.31 56.4956 110.09C56.8156 109.863 57.0123 109.557 57.0856 109.17H57.9156C57.8156 109.777 57.5356 110.253 57.0756 110.6C56.6156 110.947 56.0323 111.12 55.3256 111.12ZM61.9495 111.12C61.3895 111.12 60.9029 111.003 60.4895 110.77C60.0762 110.53 59.7562 110.197 59.5295 109.77C59.3029 109.343 59.1895 108.84 59.1895 108.26C59.1895 107.68 59.3062 107.177 59.5395 106.75C59.7729 106.317 60.0962 105.983 60.5095 105.75C60.9229 105.517 61.4062 105.4 61.9595 105.4C62.3862 105.4 62.7729 105.48 63.1195 105.64C63.4729 105.8 63.7595 106.027 63.9795 106.32C64.1995 106.607 64.3295 106.95 64.3695 107.35H63.5395C63.4795 106.957 63.3062 106.65 63.0195 106.43C62.7329 106.21 62.3795 106.1 61.9595 106.1C61.5729 106.1 61.2329 106.19 60.9395 106.37C60.6462 106.543 60.4195 106.79 60.2595 107.11C60.0995 107.43 60.0195 107.813 60.0195 108.26C60.0195 108.927 60.1929 109.453 60.5395 109.84C60.8929 110.227 61.3629 110.42 61.9495 110.42C62.2029 110.42 62.4395 110.37 62.6595 110.27C62.8862 110.17 63.0795 110.027 63.2395 109.84C63.3995 109.647 63.5095 109.423 63.5695 109.17H64.3995C64.3329 109.577 64.1795 109.923 63.9395 110.21C63.6995 110.497 63.4062 110.72 63.0595 110.88C62.7195 111.04 62.3495 111.12 61.9495 111.12ZM68.7234 111C68.3901 111 68.1101 110.937 67.8834 110.81C67.6634 110.683 67.4968 110.503 67.3834 110.27C67.2768 110.03 67.2234 109.75 67.2234 109.43V104.44L68.0434 103.94V109.43C68.0434 109.59 68.0668 109.74 68.1134 109.88C68.1601 110.013 68.2534 110.123 68.3934 110.21C68.5334 110.29 68.7368 110.33 69.0034 110.33H70.7334V111H68.7234ZM65.8534 106.19V105.52H69.8934V106.19H65.8534ZM74.7673 111.12C74.2073 111.12 73.724 111.007 73.3173 110.78C72.9173 110.547 72.6073 110.217 72.3873 109.79C72.174 109.357 72.0673 108.847 72.0673 108.26C72.0673 107.667 72.174 107.157 72.3873 106.73C72.6073 106.303 72.9173 105.977 73.3173 105.75C73.724 105.517 74.2073 105.4 74.7673 105.4C75.614 105.4 76.2773 105.657 76.7573 106.17C77.2373 106.677 77.4773 107.373 77.4773 108.26C77.4773 108.847 77.3673 109.357 77.1473 109.79C76.934 110.217 76.624 110.547 76.2173 110.78C75.8173 111.007 75.334 111.12 74.7673 111.12ZM74.7673 110.42C75.354 110.42 75.814 110.227 76.1473 109.84C76.4807 109.453 76.6473 108.927 76.6473 108.26C76.6473 107.587 76.4807 107.06 76.1473 106.68C75.814 106.293 75.354 106.1 74.7673 106.1C74.1873 106.1 73.7307 106.293 73.3973 106.68C73.064 107.06 72.8973 107.587 72.8973 108.26C72.8973 108.927 73.064 109.453 73.3973 109.84C73.7307 110.227 74.1873 110.42 74.7673 110.42ZM82.8813 107.75V107.12C82.8813 106.813 82.7879 106.57 82.6013 106.39C82.4146 106.203 82.1479 106.11 81.8013 106.11C81.3479 106.11 80.9479 106.283 80.6012 106.63C80.2613 106.977 80.0013 107.49 79.8213 108.17L79.6813 107.25C79.8213 106.843 79.9979 106.503 80.2113 106.23C80.4246 105.957 80.6713 105.75 80.9513 105.61C81.2379 105.47 81.5546 105.4 81.9013 105.4C82.4413 105.4 82.8779 105.553 83.2113 105.86C83.5446 106.16 83.7113 106.58 83.7113 107.12V107.75H82.8813ZM79.1613 111V105.52H79.9213L79.9913 106.85V111H79.1613ZM87.9352 111.12C87.4552 111.12 87.0352 111.037 86.6752 110.87C86.3152 110.703 86.0352 110.467 85.8352 110.16C85.6418 109.847 85.5418 109.473 85.5352 109.04H86.3252C86.3318 109.48 86.4818 109.827 86.7752 110.08C87.0685 110.333 87.4518 110.46 87.9252 110.46C88.3452 110.46 88.6818 110.38 88.9352 110.22C89.1885 110.06 89.3152 109.843 89.3152 109.57C89.3152 109.357 89.2452 109.187 89.1052 109.06C88.9718 108.933 88.7952 108.833 88.5752 108.76C88.3618 108.687 88.1218 108.623 87.8552 108.57C87.5952 108.517 87.3352 108.457 87.0752 108.39C86.8152 108.323 86.5752 108.24 86.3552 108.14C86.1418 108.033 85.9652 107.89 85.8252 107.71C85.6918 107.523 85.6252 107.283 85.6252 106.99C85.6252 106.683 85.7118 106.413 85.8852 106.18C86.0585 105.94 86.3052 105.75 86.6252 105.61C86.9518 105.47 87.3385 105.4 87.7852 105.4C88.4652 105.4 89.0052 105.557 89.4052 105.87C89.8118 106.183 90.0318 106.61 90.0652 107.15H89.2752C89.2552 106.803 89.1118 106.537 88.8452 106.35C88.5852 106.157 88.2318 106.06 87.7852 106.06C87.3518 106.06 87.0218 106.147 86.7952 106.32C86.5752 106.493 86.4652 106.707 86.4652 106.96C86.4652 107.153 86.5318 107.307 86.6652 107.42C86.7985 107.527 86.9752 107.613 87.1952 107.68C87.4152 107.74 87.6552 107.793 87.9152 107.84C88.1818 107.88 88.4452 107.933 88.7052 108C88.9652 108.067 89.2018 108.16 89.4152 108.28C89.6352 108.393 89.8118 108.55 89.9452 108.75C90.0785 108.943 90.1452 109.2 90.1452 109.52C90.1452 110.02 89.9418 110.413 89.5352 110.7C89.1352 110.98 88.6018 111.12 87.9352 111.12ZM94.7891 105.95L94.6791 103.55H95.5991L95.4691 105.95H94.7891ZM93.0991 105.95L92.9891 103.55H93.9091L93.7791 105.95H93.0991Z" fill="#0288D1"/>
<path d="M100.263 107.2V106.13H101.323V107.2H100.263ZM100.263 111V109.93H101.323V111H100.263ZM114.861 111.97C114.521 111.97 114.217 111.9 113.951 111.76C113.691 111.62 113.487 111.42 113.341 111.16C113.194 110.907 113.121 110.6 113.121 110.24V109.16C113.121 108.933 113.044 108.743 112.891 108.59C112.744 108.43 112.547 108.33 112.301 108.29V107.72C112.547 107.68 112.744 107.577 112.891 107.41C113.044 107.237 113.121 107.043 113.121 106.83V105.74C113.121 105.393 113.194 105.093 113.341 104.84C113.487 104.58 113.691 104.38 113.951 104.24C114.217 104.093 114.521 104.02 114.861 104.02H115.241V104.69H114.931C114.631 104.69 114.391 104.79 114.211 104.99C114.031 105.19 113.941 105.453 113.941 105.78V106.7C113.941 107.08 113.847 107.387 113.661 107.62C113.481 107.853 113.241 108.01 112.941 108.09V107.91C113.241 107.99 113.481 108.147 113.661 108.38C113.847 108.613 113.941 108.917 113.941 109.29V110.2C113.941 110.54 114.031 110.807 114.211 111C114.391 111.193 114.631 111.29 114.931 111.29H115.241V111.97H114.861Z" fill="#656B7F"/>
<path d="M80.7513 125.2V124.13H81.8113V125.2H80.7513ZM80.7513 129V127.93H81.8113V129H80.7513ZM95.0191 129V127.29H91.4791V126.66L94.7191 122.02H95.8991V126.54H97.1091V127.29H95.8991V129H95.0191ZM92.4291 126.54H95.0191V124.18L95.0391 122.76L94.2491 123.95L92.4291 126.54ZM100.253 129V127.94H101.313V129L100.693 130.73H99.973L100.223 130.23L100.873 128.99L100.253 129Z" fill="white"/>
<path d="M42.7578 123.95L42.6478 121.55H43.5678L43.4378 123.95H42.7578ZM41.0678 123.95L40.9578 121.55H41.8778L41.7478 123.95H41.0678ZM48.9117 129.12C48.4317 129.12 48.0117 129.037 47.6517 128.87C47.2917 128.703 47.0117 128.467 46.8117 128.16C46.6184 127.847 46.5184 127.473 46.5117 127.04H47.3017C47.3084 127.48 47.4584 127.827 47.7517 128.08C48.0451 128.333 48.4284 128.46 48.9017 128.46C49.3217 128.46 49.6584 128.38 49.9117 128.22C50.1651 128.06 50.2917 127.843 50.2917 127.57C50.2917 127.357 50.2217 127.187 50.0817 127.06C49.9484 126.933 49.7717 126.833 49.5517 126.76C49.3384 126.687 49.0984 126.623 48.8317 126.57C48.5717 126.517 48.3117 126.457 48.0517 126.39C47.7917 126.323 47.5517 126.24 47.3317 126.14C47.1184 126.033 46.9417 125.89 46.8017 125.71C46.6684 125.523 46.6017 125.283 46.6017 124.99C46.6017 124.683 46.6884 124.413 46.8617 124.18C47.0351 123.94 47.2817 123.75 47.6017 123.61C47.9284 123.47 48.3151 123.4 48.7617 123.4C49.4417 123.4 49.9817 123.557 50.3817 123.87C50.7884 124.183 51.0084 124.61 51.0417 125.15H50.2517C50.2317 124.803 50.0884 124.537 49.8217 124.35C49.5617 124.157 49.2084 124.06 48.7617 124.06C48.3284 124.06 47.9984 124.147 47.7717 124.32C47.5517 124.493 47.4417 124.707 47.4417 124.96C47.4417 125.153 47.5084 125.307 47.6417 125.42C47.7751 125.527 47.9517 125.613 48.1717 125.68C48.3917 125.74 48.6317 125.793 48.8917 125.84C49.1584 125.88 49.4217 125.933 49.6817 126C49.9417 126.067 50.1784 126.16 50.3917 126.28C50.6117 126.393 50.7884 126.55 50.9217 126.75C51.0551 126.943 51.1217 127.2 51.1217 127.52C51.1217 128.02 50.9184 128.413 50.5117 128.7C50.1117 128.98 49.5784 129.12 48.9117 129.12ZM54.9156 129V123.52H55.7456V129H54.9156ZM52.8156 129V128.33H57.6656V129H52.8156ZM53.5556 124.19V123.52H55.3356V124.19H53.5556ZM54.8456 122.51V121.55H55.8056V122.51H54.8456ZM59.4395 129V128.4L62.1795 125.23L63.1195 124.18L61.7095 124.19H59.5995V123.52H64.1195V124.12L61.3895 127.29L60.4295 128.34L61.8495 128.33H64.1195V129H59.4395ZM68.3334 129.12C67.7734 129.12 67.2901 129.007 66.8834 128.78C66.4768 128.547 66.1634 128.217 65.9434 127.79C65.7301 127.357 65.6234 126.843 65.6234 126.25C65.6234 125.657 65.7334 125.15 65.9534 124.73C66.1734 124.303 66.4868 123.977 66.8934 123.75C67.3001 123.517 67.7868 123.4 68.3534 123.4C69.2068 123.4 69.8501 123.633 70.2834 124.1C70.7168 124.567 70.9101 125.21 70.8634 126.03H66.2834V125.38L70.0134 125.4C69.9868 125 69.8234 124.683 69.5234 124.45C69.2234 124.21 68.8334 124.09 68.3534 124.09C67.7534 124.09 67.2868 124.283 66.9534 124.67C66.6201 125.05 66.4534 125.583 66.4534 126.27C66.4534 126.703 66.5268 127.083 66.6734 127.41C66.8268 127.73 67.0434 127.98 67.3234 128.16C67.6034 128.333 67.9401 128.42 68.3334 128.42C68.8001 128.42 69.1901 128.31 69.5034 128.09C69.8234 127.863 70.0201 127.557 70.0934 127.17H70.9234C70.8234 127.777 70.5434 128.253 70.0834 128.6C69.6234 128.947 69.0401 129.12 68.3334 129.12ZM75.2773 123.95L75.1673 121.55H76.0873L75.9573 123.95H75.2773ZM73.5873 123.95L73.4773 121.55H74.3973L74.2673 123.95H73.5873Z" fill="#0288D1"/>
<path d="M42.7578 141.95L42.6478 139.55H43.5678L43.4378 141.95H42.7578ZM41.0678 141.95L40.9578 139.55H41.8778L41.7478 141.95H41.0678ZM48.5017 141.4C48.8951 141.4 49.2551 141.483 49.5817 141.65C49.9084 141.81 50.1684 142.033 50.3617 142.32V139.67H51.1817V147H50.4117L50.3817 146.17C50.1884 146.457 49.9284 146.687 49.6017 146.86C49.2751 147.033 48.9084 147.12 48.5017 147.12C48.0151 147.12 47.5851 147 47.2117 146.76C46.8384 146.513 46.5451 146.177 46.3317 145.75C46.1184 145.317 46.0117 144.82 46.0117 144.26C46.0117 143.693 46.1184 143.197 46.3317 142.77C46.5451 142.337 46.8384 142 47.2117 141.76C47.5851 141.52 48.0151 141.4 48.5017 141.4ZM48.6617 146.41C49.0417 146.41 49.3851 146.307 49.6917 146.1C49.9984 145.887 50.2217 145.597 50.3617 145.23V143.28C50.2217 142.907 49.9984 142.62 49.6917 142.42C49.3851 142.213 49.0417 142.11 48.6617 142.11C48.2951 142.11 47.9751 142.2 47.7017 142.38C47.4351 142.553 47.2251 142.803 47.0717 143.13C46.9251 143.45 46.8517 143.827 46.8517 144.26C46.8517 144.687 46.9251 145.063 47.0717 145.39C47.2251 145.71 47.4351 145.96 47.7017 146.14C47.9751 146.32 48.2951 146.41 48.6617 146.41ZM54.9156 147V141.52H55.7456V147H54.9156ZM52.8156 147V146.33H57.6656V147H52.8156ZM53.5556 142.19V141.52H55.3356V142.19H53.5556ZM54.8456 140.51V139.55H55.8056V140.51H54.8456ZM61.9195 147.12C61.4395 147.12 61.0195 147.037 60.6595 146.87C60.2995 146.703 60.0195 146.467 59.8195 146.16C59.6262 145.847 59.5262 145.473 59.5195 145.04H60.3095C60.3162 145.48 60.4662 145.827 60.7595 146.08C61.0529 146.333 61.4362 146.46 61.9095 146.46C62.3295 146.46 62.6662 146.38 62.9195 146.22C63.1729 146.06 63.2995 145.843 63.2995 145.57C63.2995 145.357 63.2295 145.187 63.0895 145.06C62.9562 144.933 62.7795 144.833 62.5595 144.76C62.3462 144.687 62.1062 144.623 61.8395 144.57C61.5795 144.517 61.3195 144.457 61.0595 144.39C60.7995 144.323 60.5595 144.24 60.3395 144.14C60.1262 144.033 59.9495 143.89 59.8095 143.71C59.6762 143.523 59.6095 143.283 59.6095 142.99C59.6095 142.683 59.6962 142.413 59.8695 142.18C60.0429 141.94 60.2895 141.75 60.6095 141.61C60.9362 141.47 61.3229 141.4 61.7695 141.4C62.4495 141.4 62.9895 141.557 63.3895 141.87C63.7962 142.183 64.0162 142.61 64.0495 143.15H63.2595C63.2395 142.803 63.0962 142.537 62.8295 142.35C62.5695 142.157 62.2162 142.06 61.7695 142.06C61.3362 142.06 61.0062 142.147 60.7795 142.32C60.5595 142.493 60.4495 142.707 60.4495 142.96C60.4495 143.153 60.5162 143.307 60.6495 143.42C60.7829 143.527 60.9595 143.613 61.1795 143.68C61.3995 143.74 61.6395 143.793 61.8995 143.84C62.1662 143.88 62.4295 143.933 62.6895 144C62.9495 144.067 63.1862 144.16 63.3995 144.28C63.6195 144.393 63.7962 144.55 63.9295 144.75C64.0629 144.943 64.1295 145.2 64.1295 145.52C64.1295 146.02 63.9262 146.413 63.5195 146.7C63.1195 146.98 62.5862 147.12 61.9195 147.12ZM68.7234 147C68.3901 147 68.1101 146.937 67.8834 146.81C67.6634 146.683 67.4968 146.503 67.3834 146.27C67.2768 146.03 67.2234 145.75 67.2234 145.43V140.44L68.0434 139.94V145.43C68.0434 145.59 68.0668 145.74 68.1134 145.88C68.1601 146.013 68.2534 146.123 68.3934 146.21C68.5334 146.29 68.7368 146.33 69.0034 146.33H70.7334V147H68.7234ZM65.8534 142.19V141.52H69.8934V142.19H65.8534ZM76.3373 147L76.2973 145.67V143.45C76.2973 143.017 76.1573 142.677 75.8773 142.43C75.5973 142.177 75.2173 142.05 74.7373 142.05C74.2707 142.05 73.8873 142.16 73.5873 142.38C73.294 142.593 73.134 142.89 73.1073 143.27H72.2973C72.324 142.877 72.444 142.543 72.6573 142.27C72.8773 141.99 73.1673 141.777 73.5273 141.63C73.8873 141.477 74.2973 141.4 74.7573 141.4C75.2373 141.4 75.654 141.483 76.0073 141.65C76.3607 141.817 76.634 142.057 76.8273 142.37C77.0207 142.677 77.1173 143.047 77.1173 143.48V147H76.3373ZM74.2773 147.12C73.9173 147.12 73.6007 147.057 73.3273 146.93C73.054 146.803 72.8407 146.623 72.6873 146.39C72.5407 146.15 72.4673 145.867 72.4673 145.54C72.4673 144.973 72.684 144.533 73.1173 144.22C73.5507 143.907 74.1607 143.75 74.9473 143.75H76.4273V144.39H74.9073C74.4007 144.39 74.004 144.487 73.7173 144.68C73.4307 144.873 73.2873 145.147 73.2873 145.5C73.2873 145.793 73.3907 146.023 73.5973 146.19C73.804 146.35 74.074 146.43 74.4073 146.43C74.8407 146.43 75.2207 146.31 75.5473 146.07C75.8807 145.83 76.1507 145.503 76.3573 145.09L76.4573 145.73C76.2773 146.17 76.004 146.513 75.6373 146.76C75.2707 147 74.8173 147.12 74.2773 147.12ZM82.8913 147V143.52C82.8913 143.1 82.7679 142.76 82.5213 142.5C82.2813 142.24 81.9613 142.11 81.5613 142.11C81.1146 142.11 80.7179 142.28 80.3713 142.62C80.0246 142.953 79.7713 143.463 79.6113 144.15L79.4613 143.08C79.6613 142.533 79.9579 142.117 80.3513 141.83C80.7513 141.543 81.1946 141.4 81.6813 141.4C82.0946 141.4 82.4513 141.49 82.7513 141.67C83.0579 141.843 83.2946 142.087 83.4613 142.4C83.6346 142.713 83.7213 143.08 83.7213 143.5V147H82.8913ZM78.8913 147V141.52H79.6713L79.7213 142.84V147H78.8913ZM87.9652 147.12C87.4052 147.12 86.9185 147.003 86.5052 146.77C86.0918 146.53 85.7718 146.197 85.5452 145.77C85.3185 145.343 85.2052 144.84 85.2052 144.26C85.2052 143.68 85.3218 143.177 85.5552 142.75C85.7885 142.317 86.1118 141.983 86.5252 141.75C86.9385 141.517 87.4218 141.4 87.9752 141.4C88.4018 141.4 88.7885 141.48 89.1352 141.64C89.4885 141.8 89.7752 142.027 89.9952 142.32C90.2152 142.607 90.3452 142.95 90.3852 143.35H89.5552C89.4952 142.957 89.3218 142.65 89.0352 142.43C88.7485 142.21 88.3952 142.1 87.9752 142.1C87.5885 142.1 87.2485 142.19 86.9552 142.37C86.6618 142.543 86.4352 142.79 86.2752 143.11C86.1152 143.43 86.0352 143.813 86.0352 144.26C86.0352 144.927 86.2085 145.453 86.5552 145.84C86.9085 146.227 87.3785 146.42 87.9652 146.42C88.2185 146.42 88.4552 146.37 88.6752 146.27C88.9018 146.17 89.0952 146.027 89.2552 145.84C89.4152 145.647 89.5252 145.423 89.5852 145.17H90.4152C90.3485 145.577 90.1952 145.923 89.9552 146.21C89.7152 146.497 89.4218 146.72 89.0752 146.88C88.7352 147.04 88.3652 147.12 87.9652 147.12ZM94.3491 147.12C93.7891 147.12 93.3057 147.007 92.8991 146.78C92.4924 146.547 92.1791 146.217 91.9591 145.79C91.7457 145.357 91.6391 144.843 91.6391 144.25C91.6391 143.657 91.7491 143.15 91.9691 142.73C92.1891 142.303 92.5024 141.977 92.9091 141.75C93.3157 141.517 93.8024 141.4 94.3691 141.4C95.2224 141.4 95.8657 141.633 96.2991 142.1C96.7324 142.567 96.9257 143.21 96.8791 144.03H92.2991V143.38L96.0291 143.4C96.0024 143 95.8391 142.683 95.5391 142.45C95.2391 142.21 94.8491 142.09 94.3691 142.09C93.7691 142.09 93.3024 142.283 92.9691 142.67C92.6357 143.05 92.4691 143.583 92.4691 144.27C92.4691 144.703 92.5424 145.083 92.6891 145.41C92.8424 145.73 93.0591 145.98 93.3391 146.16C93.6191 146.333 93.9557 146.42 94.3491 146.42C94.8157 146.42 95.2057 146.31 95.5191 146.09C95.8391 145.863 96.0357 145.557 96.1091 145.17H96.9391C96.8391 145.777 96.5591 146.253 96.0991 146.6C95.6391 146.947 95.0557 147.12 94.3491 147.12ZM101.293 141.95L101.183 139.55H102.103L101.973 141.95H101.293ZM99.603 141.95L99.493 139.55H100.413L100.283 141.95H99.603Z" fill="#0288D1"/>
<path d="M106.767 143.2V142.13H107.827V143.2H106.767ZM106.767 147V145.93H107.827V147H106.767Z" fill="white"/>
<path d="M120.805 141.95L120.695 139.55H121.615L121.485 141.95H120.805ZM119.115 141.95L119.005 139.55H119.925L119.795 141.95H119.115ZM124.289 147V140.02H126.379C126.879 140.02 127.329 140.103 127.729 140.27C128.135 140.43 128.482 140.663 128.769 140.97C129.055 141.27 129.275 141.633 129.429 142.06C129.582 142.487 129.659 142.963 129.659 143.49C129.659 144.023 129.582 144.507 129.429 144.94C129.275 145.367 129.055 145.737 128.769 146.05C128.482 146.357 128.135 146.593 127.729 146.76C127.329 146.92 126.879 147 126.379 147H124.289ZM125.159 146.25H126.379C126.859 146.25 127.275 146.137 127.629 145.91C127.989 145.683 128.262 145.363 128.449 144.95C128.642 144.53 128.739 144.043 128.739 143.49C128.739 142.937 128.642 142.457 128.449 142.05C128.262 141.643 127.989 141.33 127.629 141.11C127.275 140.883 126.859 140.77 126.379 140.77H125.159V146.25ZM133.303 147.12C132.743 147.12 132.259 147.007 131.853 146.78C131.453 146.547 131.143 146.217 130.923 145.79C130.709 145.357 130.603 144.847 130.603 144.26C130.603 143.667 130.709 143.157 130.923 142.73C131.143 142.303 131.453 141.977 131.853 141.75C132.259 141.517 132.743 141.4 133.303 141.4C134.149 141.4 134.813 141.657 135.293 142.17C135.773 142.677 136.013 143.373 136.013 144.26C136.013 144.847 135.903 145.357 135.683 145.79C135.469 146.217 135.159 146.547 134.753 146.78C134.353 147.007 133.869 147.12 133.303 147.12ZM133.303 146.42C133.889 146.42 134.349 146.227 134.683 145.84C135.016 145.453 135.183 144.927 135.183 144.26C135.183 143.587 135.016 143.06 134.683 142.68C134.349 142.293 133.889 142.1 133.303 142.1C132.723 142.1 132.266 142.293 131.933 142.68C131.599 143.06 131.433 143.587 131.433 144.26C131.433 144.927 131.599 145.453 131.933 145.84C132.266 146.227 132.723 146.42 133.303 146.42ZM140.266 147C139.933 147 139.653 146.937 139.426 146.81C139.206 146.683 139.04 146.503 138.926 146.27C138.82 146.03 138.766 145.75 138.766 145.43V140.44L139.586 139.94V145.43C139.586 145.59 139.61 145.74 139.656 145.88C139.703 146.013 139.796 146.123 139.936 146.21C140.076 146.29 140.28 146.33 140.546 146.33H142.276V147H140.266ZM137.396 142.19V141.52H141.436V142.19H137.396ZM146.82 141.95L146.71 139.55H147.63L147.5 141.95H146.82ZM145.13 141.95L145.02 139.55H145.94L145.81 141.95H145.13Z" fill="#EF6C00"/>
<path d="M34.6939 165.97H34.3139V165.29H34.6239C35.2239 165.29 35.6139 164.88 35.6139 164.2V163.29C35.6139 162.65 35.9039 162.22 36.3639 162C35.9139 161.78 35.6139 161.35 35.6139 160.7V159.78C35.6139 159.13 35.2239 158.69 34.6239 158.69H34.3139V158.02H34.6939C35.7139 158.02 36.4339 158.69 36.4339 159.74V160.83C36.4339 161.26 36.7639 161.64 37.2539 161.72V162.29C36.7639 162.37 36.4339 162.71 36.4339 163.16V164.24C36.4339 165.32 35.7239 165.97 34.6939 165.97Z" fill="white"/>
<path d="M28.19 183.97H27.81V183.29H28.12C28.72 183.29 29.11 182.88 29.11 182.2V181.29C29.11 180.65 29.4 180.22 29.86 180C29.41 179.78 29.11 179.35 29.11 178.7V177.78C29.11 177.13 28.72 176.69 28.12 176.69H27.81V176.02H28.19C29.21 176.02 29.93 176.69 29.93 177.74V178.83C29.93 179.26 30.26 179.64 30.75 179.72V180.29C30.26 180.37 29.93 180.71 29.93 181.16V182.24C29.93 183.32 29.22 183.97 28.19 183.97Z" fill="white"/>
<defs>
<linearGradient id="paint0_linear_8_4660" x1="200" y1="32" x2="200" y2="200" gradientUnits="userSpaceOnUse">
<stop stop-color="#161E33"/>
<stop offset="1" stop-color="#0E1424"/>
</linearGradient>
</defs>
</svg>
