<svg width="56" height="64" viewBox="0 0 56 64" fill="none" xmlns="http://www.w3.org/2000/svg">
<path d="M28.2136 0L0.5 16V48L28.2136 64L38.6056 58V46L28.2136 52L10.8936 42V22L28.2136 12L45.5336 22V62L55.9272 56V16L28.2136 0Z" fill="#DC244C"/>
<path d="M17.8216 26V38L28.2136 44L38.6056 38V26L28.2136 20L17.8216 26Z" fill="#DC244C"/>
<path d="M38.6056 46V58L28.2136 64V52L38.6056 46Z" fill="#9E0D38"/>
<path d="M55.9272 16V56L45.5336 62V22L55.9272 16Z" fill="#9E0D38"/>
<path d="M55.9272 16L45.5336 22L28.2136 12L10.8936 22L0.5 16L28.2136 0L55.9272 16Z" fill="#FF516B"/>
<path d="M28.2136 52V64L0.5 48V16L10.8936 22V42L28.2136 52Z" fill="#DC244C"/>
<path d="M38.6056 26L28.2136 32L17.8216 26L28.2136 20L38.6056 26Z" fill="#FF516B"/>
<path d="M28.2136 32V44L17.8216 38V26L28.2136 32Z" fill="#DC244C"/>
<path d="M38.6056 26V38L28.2136 44V32L38.6056 26Z" fill="#9E0D38"/>
</svg>
